<svg xmlns="http://www.w3.org/2000/svg" viewBox="0 0 178.79 503.93"><title>floormap</title><polygon points="178.29 39 178.29 501.02 71.35 501.02 71.35 482.16 16.57 482.16 16.58 449.24 0.5 449.24 0.5 18.96 16.58 18.96 16.58 0.5 71.35 0.5 71.35 39 178.29 39" style="fill:#fff"/><rect x="77.33" y="85.22" width="147.19" height="54.74" transform="translate(263.51 -38.32) rotate(90)" style="fill:#81a330"/><rect x="74.56" y="350.71" width="14.84" height="43.46" transform="translate(454.42 290.46) rotate(90)" style="fill:#29adbf"/><rect x="73.88" y="335.2" width="16.2" height="43.46" transform="translate(438.9 274.95) rotate(90)" style="fill:#d94437"/><text transform="translate(77.98 377.6)" style="font-size:14px;fill:#fff;font-family:FontAwesome, FontAwesome"></text><text transform="translate(76.98 362.08)" style="font-size:14px;fill:#fff;font-family:FontAwesome, FontAwesome"></text><rect x="26.4" y="405.12" width="11.74" height="31.4" transform="translate(453.09 388.54) rotate(90)" style="fill:#29adbf"/><rect x="23.87" y="425.14" width="16.8" height="31.4" transform="translate(473.11 408.57) rotate(90)" style="fill:#d94437"/><text transform="translate(26.56 446.73)" style="font-size:16px;fill:#fff;font-family:FontAwesome, FontAwesome"></text><rect x="83.31" y="290.55" width="135.23" height="54.74" transform="translate(468.84 167) rotate(90)" style="fill:#b3c77a"/><rect x="22.81" y="31.65" width="18.93" height="31.4" transform="translate(79.62 15.08) rotate(90)" style="fill:#29adbf"/><rect x="22.81" y="12.72" width="18.93" height="31.4" transform="translate(60.7 -3.85) rotate(90)" style="fill:#d94437"/><line x1="123.55" y1="90.19" x2="123.55" y2="53.44" style="fill:none;stroke:#000;stroke-miterlimit:10"/><polyline points="123.55 46.19 123.55 39 178.29 39 178.29 118.76 123.55 118.76 123.55 99.44" style="fill:none;stroke:#000;stroke-miterlimit:10"/><line x1="123.55" y1="155.94" x2="123.55" y2="131.19" style="fill:none;stroke:#000;stroke-miterlimit:10"/><polyline points="129.22 186.19 123.55 186.19 123.55 163.69" style="fill:none;stroke:#000;stroke-miterlimit:10"/><line x1="165.47" y1="186.19" x2="136.72" y2="186.19" style="fill:none;stroke:#000;stroke-miterlimit:10"/><polyline points="123.55 123.44 123.55 118.58 178.29 118.58 178.29 186.19 173.97 186.19" style="fill:none;stroke:#000;stroke-miterlimit:10"/><line x1="136.47" y1="250.31" x2="164.97" y2="250.31" style="fill:none;stroke:#000;stroke-miterlimit:10"/><polyline points="123.55 317.92 123.55 250.31 129.22 250.31" style="fill:none;stroke:#000;stroke-miterlimit:10"/><line x1="123.55" y1="370.44" x2="123.55" y2="326.44" style="fill:none;stroke:#000;stroke-miterlimit:10"/><polyline points="173.47 250.31 178.29 250.31 178.29 385.53 123.55 385.53 123.55 377.94" style="fill:none;stroke:#000;stroke-miterlimit:10"/><polyline points="123.55 393.19 123.55 385.53 178.29 385.53 178.29 453.15 123.55 453.15 123.55 445.19" style="fill:none;stroke:#000;stroke-miterlimit:10"/><line x1="123.55" y1="435.94" x2="123.55" y2="401.69" style="fill:none;stroke:#000;stroke-miterlimit:10"/><polyline points="109.26 424.31 109.26 428.87 60.25 428.87 60.25 393.31" style="fill:none;stroke:#000;stroke-miterlimit:10"/><line x1="109.26" y1="391.56" x2="109.26" y2="415.94" style="fill:none;stroke:#000;stroke-miterlimit:10"/><polyline points="60.25 385.53 60.25 379.86 109.26 379.86 109.26 384.06" style="fill:none;stroke:#000;stroke-miterlimit:10"/><polyline points="60.25 320.02 60.25 315.87 109.26 315.87 109.26 319.02" style="fill:none;stroke:#000;stroke-miterlimit:10"/><polyline points="109.26 326.44 109.26 348.83 60.25 348.83 60.25 327.86" style="fill:none;stroke:#000;stroke-miterlimit:10"/><polyline points="109.26 312.61 109.26 315.87 60.25 315.87 60.25 262.86" style="fill:none;stroke:#000;stroke-miterlimit:10"/><line x1="109.26" y1="261.69" x2="109.26" y2="305.69" style="fill:none;stroke:#000;stroke-miterlimit:10"/><polyline points="60.25 255.02 60.25 242.13 109.26 242.13 109.26 253.19" style="fill:none;stroke:#000;stroke-miterlimit:10"/><rect x="68.22" y="145.15" width="33.06" height="49.01" transform="translate(254.41 84.9) rotate(90)" style="fill:#e5e5e5;stroke:#000;stroke-miterlimit:10"/><rect x="78.07" y="168.36" width="13.36" height="49.01" transform="translate(277.62 108.12) rotate(90)" style="fill:#e5e5e5;stroke:#000;stroke-miterlimit:10"/><rect x="60.25" y="199.55" width="8.7" height="22.14" transform="translate(129.2 421.24) rotate(-180)" style="fill:#e5e5e5;stroke:#000;stroke-miterlimit:10"/><polyline points="100.56 199.55 109.26 199.55 109.26 210.62 80.22 210.62" style="fill:none;stroke:#000;stroke-miterlimit:10"/><rect x="60.25" y="231.06" width="8.7" height="11.07" transform="translate(129.2 473.19) rotate(-180)" style="fill:#e5e5e5;stroke:#000;stroke-miterlimit:10"/><rect x="61.03" y="104.9" width="47.44" height="49.01" transform="translate(214.16 44.65) rotate(90)" style="fill:#e5e5e5;stroke:#000;stroke-miterlimit:10"/><polyline points="123.55 470.25 123.55 453.15 178.29 453.15 178.29 480.96 173.97 480.96" style="fill:none;stroke:#000;stroke-miterlimit:10"/><polyline points="128.72 480.96 123.55 480.96 123.55 477.69" style="fill:none;stroke:#000;stroke-miterlimit:10"/><line x1="164.97" y1="480.96" x2="137.47" y2="480.96" style="fill:none;stroke:#000;stroke-miterlimit:10"/><polygon points="71.35 482.16 71.35 501.02 178.29 501.02 178.29 39 71.35 39 71.35 0.5 16.57 0.5 16.57 18.96 0.5 18.96 0.5 449.24 16.57 449.24 16.57 482.16 48.13 482.16 48.55 482.16 71.35 482.16" style="fill:none;stroke:#000;stroke-miterlimit:10"/><path d="M130.46,78.9v3.55h-1.78V73.57h3.49a3.5,3.5,0,0,1,2.31.66,2.39,2.39,0,0,1,.78,1.93,1.86,1.86,0,0,1-.39,1.22,2.68,2.68,0,0,1-1.14.77v0a1.9,1.9,0,0,1,1.11.77,2.53,2.53,0,0,1,.33,1.35v.65a3.06,3.06,0,0,0,.1.75,1,1,0,0,0,.35.58v.17H133.8a1,1,0,0,1-.32-.66,5.42,5.42,0,0,1-.07-.86V80.3a1.48,1.48,0,0,0-.33-1,1.3,1.3,0,0,0-1-.36Zm0-1.37H132a1.7,1.7,0,0,0,1.12-.31,1.18,1.18,0,0,0,.36-.94,1.34,1.34,0,0,0-.34-1,1.43,1.43,0,0,0-1.07-.35h-1.61Z" style="fill:#fff"/><path d="M144.27,78.81a3.74,3.74,0,0,1-1,2.71,3.57,3.57,0,0,1-2.7,1.06,3.53,3.53,0,0,1-2.68-1.06,3.76,3.76,0,0,1-1-2.71v-1.6a3.77,3.77,0,0,1,1-2.71,3.51,3.51,0,0,1,2.68-1.06,3.58,3.58,0,0,1,2.7,1.06,3.74,3.74,0,0,1,1,2.71Zm-1.78-1.61a2.7,2.7,0,0,0-.51-1.7,1.71,1.71,0,0,0-1.43-.66,1.66,1.66,0,0,0-1.41.66,2.77,2.77,0,0,0-.49,1.71v1.61a2.79,2.79,0,0,0,.5,1.72,1.67,1.67,0,0,0,1.42.66,1.7,1.7,0,0,0,1.43-.66,2.75,2.75,0,0,0,.51-1.72Z" style="fill:#fff"/><path d="M153.13,78.81a3.74,3.74,0,0,1-1,2.71,3.57,3.57,0,0,1-2.7,1.06,3.53,3.53,0,0,1-2.68-1.06,3.76,3.76,0,0,1-1-2.71v-1.6a3.77,3.77,0,0,1,1-2.71,3.51,3.51,0,0,1,2.68-1.06,3.58,3.58,0,0,1,2.7,1.06,3.74,3.74,0,0,1,1,2.71Zm-1.78-1.61a2.7,2.7,0,0,0-.51-1.7,1.71,1.71,0,0,0-1.43-.66,1.66,1.66,0,0,0-1.41.66,2.77,2.77,0,0,0-.49,1.71v1.61a2.79,2.79,0,0,0,.5,1.72,1.67,1.67,0,0,0,1.42.66,1.7,1.7,0,0,0,1.43-.66,2.75,2.75,0,0,0,.51-1.72Z" style="fill:#fff"/><path d="M157.13,73.57l2.27,6.57h0l2.29-6.57H164v8.87h-1.78V79.8l.18-4h0L160,82.44h-1.19l-2.39-6.61h0l.18,4v2.64h-1.78V73.57Z" style="fill:#fff"/><path d="M173.15,82.69h-1.77v-7h-1.79V74.56l3.56-.74Z" style="fill:#fff"/><path d="M129.48,153.38v3.55H127.7v-8.87h3.49a3.5,3.5,0,0,1,2.31.66,2.39,2.39,0,0,1,.78,1.93,1.86,1.86,0,0,1-.39,1.22,2.68,2.68,0,0,1-1.14.77v0a1.9,1.9,0,0,1,1.11.77,2.53,2.53,0,0,1,.33,1.35v.65a3.06,3.06,0,0,0,.1.75,1,1,0,0,0,.35.58v.17h-1.82a1,1,0,0,1-.32-.66,5.42,5.42,0,0,1-.07-.86v-.63a1.48,1.48,0,0,0-.33-1,1.3,1.3,0,0,0-1-.36Zm0-1.37H131a1.7,1.7,0,0,0,1.12-.31,1.18,1.18,0,0,0,.36-.94,1.34,1.34,0,0,0-.34-1,1.43,1.43,0,0,0-1.07-.35h-1.61Z" style="fill:#fff"/><path d="M143.29,153.29a3.74,3.74,0,0,1-1,2.71,3.57,3.57,0,0,1-2.7,1.06,3.53,3.53,0,0,1-2.68-1.06,3.76,3.76,0,0,1-1-2.71v-1.6a3.77,3.77,0,0,1,1-2.71,3.51,3.51,0,0,1,2.68-1.06,3.58,3.58,0,0,1,2.7,1.06,3.74,3.74,0,0,1,1,2.71Zm-1.78-1.61A2.7,2.7,0,0,0,141,150a1.71,1.71,0,0,0-1.43-.66,1.66,1.66,0,0,0-1.41.66,2.77,2.77,0,0,0-.49,1.71v1.61a2.79,2.79,0,0,0,.5,1.72,1.67,1.67,0,0,0,1.42.66A1.7,1.7,0,0,0,141,155a2.75,2.75,0,0,0,.51-1.72Z" style="fill:#fff"/><path d="M152.15,153.29a3.74,3.74,0,0,1-1,2.71,3.57,3.57,0,0,1-2.7,1.06,3.53,3.53,0,0,1-2.68-1.06,3.76,3.76,0,0,1-1-2.71v-1.6a3.77,3.77,0,0,1,1-2.71,3.51,3.51,0,0,1,2.68-1.06,3.58,3.58,0,0,1,2.7,1.06,3.74,3.74,0,0,1,1,2.71Zm-1.78-1.61a2.7,2.7,0,0,0-.51-1.7,1.71,1.71,0,0,0-1.43-.66A1.66,1.66,0,0,0,147,150a2.77,2.77,0,0,0-.49,1.71v1.61A2.79,2.79,0,0,0,147,155a1.67,1.67,0,0,0,1.42.66,1.7,1.7,0,0,0,1.43-.66,2.75,2.75,0,0,0,.51-1.72Z" style="fill:#fff"/><path d="M156.15,148.06l2.27,6.57h0l2.29-6.57h2.33v8.87h-1.78v-2.64l.18-4h0l-2.4,6.63h-1.19l-2.39-6.61h0l.18,4v2.64h-1.78v-8.87Z" style="fill:#fff"/><path d="M174.14,157.17h-6.06V156l2.87-3.08a6.94,6.94,0,0,0,.89-1.21,1.94,1.94,0,0,0,.26-.91,1.38,1.38,0,0,0-.3-.92,1.07,1.07,0,0,0-.86-.35,1.11,1.11,0,0,0-.94.41,1.8,1.8,0,0,0-.31,1.12H167.9a2.84,2.84,0,0,1,.81-2.08,3,3,0,0,1,2.22-.83,3.1,3.1,0,0,1,2.17.7,2.46,2.46,0,0,1,.77,1.91,2.67,2.67,0,0,1-.43,1.48A14.42,14.42,0,0,1,172,154l-1.61,1.75h3.77Z" style="fill:#fff"/><path d="M129.53,318.69v3.55h-1.78v-8.87h3.49a3.5,3.5,0,0,1,2.31.66,2.39,2.39,0,0,1,.78,1.93,1.86,1.86,0,0,1-.39,1.22,2.68,2.68,0,0,1-1.14.77v0a1.9,1.9,0,0,1,1.11.77,2.53,2.53,0,0,1,.33,1.35v.65a3.06,3.06,0,0,0,.1.75,1,1,0,0,0,.35.58v.17h-1.82a1,1,0,0,1-.32-.66,5.42,5.42,0,0,1-.07-.86v-.63a1.48,1.48,0,0,0-.33-1,1.3,1.3,0,0,0-1-.36Zm0-1.37h1.54a1.7,1.7,0,0,0,1.12-.31,1.18,1.18,0,0,0,.36-.94,1.34,1.34,0,0,0-.34-1,1.43,1.43,0,0,0-1.07-.35h-1.61Z" style="fill:#fff"/><path d="M143.34,318.6a3.74,3.74,0,0,1-1,2.71,3.57,3.57,0,0,1-2.7,1.06,3.53,3.53,0,0,1-2.68-1.06,3.76,3.76,0,0,1-1-2.71V317a3.77,3.77,0,0,1,1-2.71,3.51,3.51,0,0,1,2.68-1.06,3.58,3.58,0,0,1,2.7,1.06,3.74,3.74,0,0,1,1,2.71ZM141.56,317a2.7,2.7,0,0,0-.51-1.7,1.71,1.71,0,0,0-1.43-.66,1.66,1.66,0,0,0-1.41.66,2.77,2.77,0,0,0-.49,1.71v1.61a2.79,2.79,0,0,0,.5,1.72,1.67,1.67,0,0,0,1.42.66,1.7,1.7,0,0,0,1.43-.66,2.75,2.75,0,0,0,.51-1.72Z" style="fill:#fff"/><path d="M152.2,318.6a3.74,3.74,0,0,1-1,2.71,3.57,3.57,0,0,1-2.7,1.06,3.53,3.53,0,0,1-2.68-1.06,3.76,3.76,0,0,1-1-2.71V317a3.77,3.77,0,0,1,1-2.71,3.51,3.51,0,0,1,2.68-1.06,3.58,3.58,0,0,1,2.7,1.06,3.74,3.74,0,0,1,1,2.71ZM150.42,317a2.7,2.7,0,0,0-.51-1.7,1.71,1.71,0,0,0-1.43-.66,1.66,1.66,0,0,0-1.41.66,2.77,2.77,0,0,0-.49,1.71v1.61a2.79,2.79,0,0,0,.5,1.72,1.67,1.67,0,0,0,1.42.66,1.7,1.7,0,0,0,1.43-.66,2.75,2.75,0,0,0,.51-1.72Z" style="fill:#fff"/><path d="M156.2,313.36l2.27,6.57h0l2.29-6.57h2.33v8.87h-1.78v-2.64l.18-4h0l-2.4,6.63h-1.19l-2.39-6.61h0l.18,4v2.64h-1.78v-8.87Z" style="fill:#fff"/><path d="M169.92,317.29h1a1.22,1.22,0,0,0,.94-.33,1.33,1.33,0,0,0,.3-.93,1.21,1.21,0,0,0-.3-.87,1.16,1.16,0,0,0-.89-.32,1.25,1.25,0,0,0-.84.29,1,1,0,0,0-.34.77H168a2.16,2.16,0,0,1,.83-1.76,3.2,3.2,0,0,1,2.09-.67,3.44,3.44,0,0,1,2.21.65,2.27,2.27,0,0,1,.81,1.89,1.88,1.88,0,0,1-.36,1.1,2.45,2.45,0,0,1-1,.81,2.28,2.28,0,0,1,1.13.8,2.12,2.12,0,0,1,.38,1.26,2.31,2.31,0,0,1-.87,1.93,3.59,3.59,0,0,1-2.28.69,3.5,3.5,0,0,1-2.14-.65,2.2,2.2,0,0,1-.88-1.89h1.78a1.09,1.09,0,0,0,.36.85,1.33,1.33,0,0,0,.93.33,1.36,1.36,0,0,0,1-.33,1.23,1.23,0,0,0,.35-.93,1.35,1.35,0,0,0-.34-1,1.48,1.48,0,0,0-1-.32h-1Z" style="fill:#fff"/><rect x="90.37" y="429.89" width="19.9" height="17.86" transform="translate(539.15 338.49) rotate(90)" style="fill:#e5e5e5;stroke:#000;stroke-miterlimit:10"/><rect x="72.97" y="429.89" width="19.9" height="17.86" transform="translate(521.74 355.9) rotate(90)" style="fill:#e5e5e5;stroke:#000;stroke-miterlimit:10"/><rect x="57.17" y="431.95" width="19.9" height="13.74" transform="translate(505.94 371.7) rotate(90)" style="fill:#e5e5e5;stroke:#000;stroke-miterlimit:10"/><rect x="59.34" y="472.36" width="40.67" height="16.66" transform="translate(560.36 401.01) rotate(90)" style="fill:#e5e5e5;stroke:#000;stroke-miterlimit:10"/><polyline points="110.04 501.02 88 501.02 88 460.35 110.04 460.35 110.04 495.27" style="fill:none;stroke:#000;stroke-miterlimit:10"/><line x1="60.25" y1="347.27" x2="60.25" y2="382.77" style="fill:none;stroke:#000;stroke-miterlimit:10"/><polygon points="71.35 31.94 71.35 18.96 71.35 0.5 47.22 0.5 16.58 0.5 16.58 18.96 47.22 18.96 47.22 31.94 71.35 31.94" style="fill:#e5e5e5;stroke:#000;stroke-miterlimit:10"/><rect x="-10.39" y="29.85" width="37.86" height="16.08" transform="translate(46.42 29.35) rotate(90)" style="fill:#e5e5e5;stroke:#000;stroke-miterlimit:10"/><rect x="46.48" y="83.21" width="36.24" height="8.7" transform="translate(152.16 22.96) rotate(90)" style="fill:#e5e5e5;stroke:#000;stroke-miterlimit:10"/><polygon points="92.1 80.1 84.1 80.1 84.1 69.44 68.95 69.44 68.95 80.1 68.95 105.68 84.1 105.68 92.1 105.68 92.1 80.1" style="fill:#e5e5e5;stroke:#000;stroke-miterlimit:10"/><polyline points="109.26 73.81 109.26 105.68 92.25 105.68 92.25 69.44 109.26 69.44" style="fill:none;stroke:#000;stroke-miterlimit:10"/><rect x="75.24" y="24.01" width="19.94" height="49.91" transform="translate(134.18 -36.23) rotate(90)" style="fill:#e5e5e5;stroke:#000;stroke-miterlimit:10"/><rect x="64.44" y="32.09" width="7.06" height="6.75" transform="translate(103.45 -32.5) rotate(90)" style="fill:none;stroke:#000;stroke-miterlimit:10"/><rect x="-48.45" y="105.76" width="145.38" height="47.47" transform="translate(153.74 105.26) rotate(90)" style="fill:#e5e5e5;stroke:#000;stroke-miterlimit:10"/><polygon points="16.58 414.95 47.97 414.95 47.97 253.19 0.5 253.19 0.5 414.95 0.5 449.24 16.58 449.24 16.58 414.95" style="fill:#e5e5e5;stroke:#000;stroke-miterlimit:10"/><rect x="18.42" y="452.6" width="27.72" height="31.4" transform="translate(500.57 436.02) rotate(90)" style="fill:#e5e5e5;stroke:#000;stroke-miterlimit:10"/><polygon points="71.35 477.69 71.35 467.06 71.35 460.35 59.66 460.35 59.66 467.06 47.97 467.06 47.97 482.16 71.35 482.16 71.35 477.69" style="fill:#e5e5e5;stroke:#000;stroke-miterlimit:10"/><rect x="33.89" y="202.19" width="14.08" height="14.08" transform="translate(250.16 168.3) rotate(90)" style="fill:none;stroke:#000;stroke-miterlimit:10"/><rect x="19.81" y="202.19" width="14.08" height="14.08" transform="translate(236.08 182.38) rotate(90)" style="fill:none;stroke:#000;stroke-miterlimit:10"/><rect x="5.72" y="202.19" width="14.08" height="14.08" transform="translate(221.99 196.47) rotate(90)" style="fill:none;stroke:#000;stroke-miterlimit:10"/><rect x="5.72" y="239.11" width="14.08" height="14.08" transform="translate(258.91 233.38) rotate(90)" style="fill:none;stroke:#000;stroke-miterlimit:10"/><rect x="19.81" y="239.11" width="14.08" height="14.08" transform="translate(272.99 219.3) rotate(90)" style="fill:none;stroke:#000;stroke-miterlimit:10"/><rect x="33.89" y="239.11" width="14.08" height="14.08" transform="translate(287.08 205.22) rotate(90)" style="fill:none;stroke:#000;stroke-miterlimit:10"/><rect x="-6.64" y="209.33" width="19.5" height="5.22" transform="translate(215.05 208.83) rotate(90)" style="fill:#e5e5e5;stroke:#000;stroke-miterlimit:10"/><rect x="-8.35" y="239.12" width="22.92" height="5.22" transform="translate(244.84 238.62) rotate(90)" style="fill:#e5e5e5;stroke:#000;stroke-miterlimit:10"/><rect x="89.53" y="458.82" width="18.98" height="22.03" transform="translate(568.86 370.81) rotate(90)" style="fill:#e5e5e5;stroke:#000;stroke-miterlimit:10"/><path d="M39.42,209.69H37.58V211h2.15v.68h-3V207.2h3v.69H37.58V209h1.84Z" style="fill:#848484"/><path d="M41.91,210.46l.06.27h0l.06-.26,1-3.26h.94l-1.51,4.44h-.91L40,207.2H41Z" style="fill:#848484"/><path d="M25.55,209.69H23.72V211h2.15v.68h-3V207.2h3v.69H23.72V209h1.84Z" style="fill:#848484"/><path d="M28,210.46l.06.27h0l.06-.26,1-3.26h.94l-1.51,4.44h-.91l-1.51-4.44h.94Z" style="fill:#848484"/><path d="M11.55,209.69H9.72V211h2.15v.68h-3V207.2h3v.69H9.72V209h1.84Z" style="fill:#848484"/><path d="M14,210.46l.06.27h0l.06-.26,1-3.26h.94l-1.51,4.44h-.91l-1.51-4.44h.94Z" style="fill:#848484"/><path d="M11.55,246.61H9.72v1.27h2.15v.68h-3v-4.44h3v.69H9.72v1.12h1.84Z" style="fill:#848484"/><path d="M14,247.38l.06.27h0l.06-.26,1-3.26h.94l-1.51,4.44h-.91l-1.51-4.44h.94Z" style="fill:#848484"/><path d="M25.55,246.61H23.72v1.27h2.15v.68h-3v-4.44h3v.69H23.72v1.12h1.84Z" style="fill:#848484"/><path d="M28,247.38l.06.27h0l.06-.26,1-3.26h.94l-1.51,4.44h-.91l-1.51-4.44h.94Z" style="fill:#848484"/><path d="M39.93,246.61H38.09v1.27h2.15v.68h-3v-4.44h3v.69H38.09v1.12h1.84Z" style="fill:#848484"/><path d="M42.42,247.38l.06.27h0l.06-.26,1-3.26h.94l-1.51,4.44H42l-1.51-4.44h.94Z" style="fill:#848484"/><line x1="109.26" y1="348.83" x2="109.26" y2="356.19" style="fill:none;stroke:#000;stroke-miterlimit:10"/><line x1="109.26" y1="379.86" x2="109.26" y2="373.94" style="fill:none;stroke:#000;stroke-miterlimit:10"/><polyline points="47.97 414.95 47.97 426.69 42.97 426.69" style="fill:none;stroke:#000;stroke-miterlimit:10"/><polyline points="16.58 432.44 47.97 432.44 47.97 449.24 42.1 449.24" style="fill:none;stroke:#000;stroke-miterlimit:10"/><line x1="47.97" y1="37.89" x2="16.58" y2="37.89" style="fill:none;stroke:#000;stroke-miterlimit:10"/><line x1="47.97" y1="44.69" x2="47.97" y2="56.81" style="fill:none;stroke:#000;stroke-miterlimit:10"/><line x1="103.97" y1="365.02" x2="60.25" y2="365.02" style="fill:none;stroke:#000;stroke-miterlimit:10"/><line x1="103.97" y1="354.19" x2="103.97" y2="375.19" style="fill:none;stroke:#000;stroke-miterlimit:10"/><rect x="91.69" y="88.12" width="18.12" height="17.01" transform="translate(197.37 -4.13) rotate(90)" style="fill:#e5e5e5;stroke:#000;stroke-miterlimit:10"/><text transform="translate(27.7 53.24)" style="font-size:16px;fill:#fff;font-family:FontAwesome, FontAwesome"></text><text transform="translate(26.56 34.31)" style="font-size:16px;fill:#fff;font-family:FontAwesome, FontAwesome"></text><circle cx="32.27" cy="420.78" r="9.91" style="fill:#29adbf"/><text transform="translate(27.7 426.67)" style="font-size:16px;fill:#fff;font-family:FontAwesome, FontAwesome"></text><circle cx="99.02" cy="490.48" r="13.45" style="fill:#32542b"/><rect x="89.65" y="493.41" width="16.44" height="2.63" style="fill:#fff"/><path d="M100.94,482.91a2.15,2.15,0,0,0-2.2,2.24,2.3,2.3,0,0,0,2.64,2.21,1.74,1.74,0,0,0,1.35,2.67h2.37c1.26,0,1.92.67,1.92,1.71v1.21" style="fill:none;stroke:#fff;stroke-linejoin:round;stroke-width:0.8813514212276329px"/><path d="M101.7,483.77a2.48,2.48,0,0,1,2.64,2.45,3,3,0,0,1-.59,1.7h1.4a3.28,3.28,0,0,1,3.25,3.39v1.62" style="fill:none;stroke:#fff;stroke-linejoin:round;stroke-width:0.8813514212276329px"/><line x1="107.02" y1="493.37" x2="107.02" y2="496.03" style="fill:none;stroke:#fff;stroke-linejoin:round;stroke-width:0.8813514212276329px"/><line x1="108.4" y1="493.37" x2="108.4" y2="496.03" style="fill:none;stroke:#fff;stroke-linejoin:round;stroke-width:0.8813514212276329px"/><circle cx="100.75" cy="78.01" r="13.45" style="fill:#32542b"/><rect x="91.38" y="80.95" width="16.44" height="2.63" style="fill:#fff"/><path d="M102.67,70.44a2.15,2.15,0,0,0-2.2,2.24,2.3,2.3,0,0,0,2.64,2.21,1.74,1.74,0,0,0,1.35,2.67h2.37c1.26,0,1.92.67,1.92,1.71v1.21" style="fill:none;stroke:#fff;stroke-linejoin:round;stroke-width:0.8813514212276329px"/><path d="M103.43,71.3a2.48,2.48,0,0,1,2.64,2.45,3,3,0,0,1-.59,1.7h1.4a3.28,3.28,0,0,1,3.25,3.39v1.62" style="fill:none;stroke:#fff;stroke-linejoin:round;stroke-width:0.8813514212276329px"/><line x1="108.75" y1="80.91" x2="108.75" y2="83.57" style="fill:none;stroke:#fff;stroke-linejoin:round;stroke-width:0.8813514212276329px"/><line x1="110.13" y1="80.91" x2="110.13" y2="83.57" style="fill:none;stroke:#fff;stroke-linejoin:round;stroke-width:0.8813514212276329px"/></svg>