<svg xmlns="http://www.w3.org/2000/svg" viewBox="0 0 534.5 212.29"><title>logo2017</title><polygon points="239.85 123.38 182.96 123.38 182.16 123.38 182.16 124.18 182.16 130.31 182.16 131.11 182.96 131.11 231.46 131.11 193.03 209.66 192.47 210.81 193.75 210.81 200.74 210.81 201.24 210.81 201.46 210.36 240.57 129.19 240.65 129.02 240.65 128.84 240.65 124.18 240.65 123.38 239.85 123.38" style="fill:#fff"/><polygon points="169.77 122.77 164.77 122.77 164.63 122.77 164.5 122.82 144.85 130.05 144.12 130.32 144.37 131.06 146.09 136.09 146.34 136.85 147.1 136.59 162.59 131.31 162.59 210.01 162.59 210.81 163.4 210.81 169.77 210.81 170.57 210.81 170.57 210.01 170.57 123.57 170.57 122.77 169.77 122.77" style="fill:#fff"/><path d="M138.17,149.76A45.79,45.79,0,0,0,131,135.41a35.47,35.47,0,0,0-11.41-9.85,31.45,31.45,0,0,0-15.16-3.65,31,31,0,0,0-15.16,3.72,36.8,36.8,0,0,0-11.47,9.9,45.83,45.83,0,0,0-7.3,14.41,57.78,57.78,0,0,0-2.55,17.16v.25a58.4,58.4,0,0,0,2.49,17.09,45.72,45.72,0,0,0,7.18,14.35A35.41,35.41,0,0,0,89,208.63a31.43,31.43,0,0,0,15.16,3.65,31,31,0,0,0,15.16-3.72,36.81,36.81,0,0,0,11.47-9.9,45.91,45.91,0,0,0,7.3-14.41,57.84,57.84,0,0,0,2.55-17.16v-.25A58.49,58.49,0,0,0,138.17,149.76Zm-5.73,17.34v.25a50.56,50.56,0,0,1-2,14.18,40.76,40.76,0,0,1-5.65,12,28.86,28.86,0,0,1-8.83,8.29,23.13,23.13,0,0,1-23.15-.06,29.61,29.61,0,0,1-9-8.42,40.69,40.69,0,0,1-5.71-12.09,50.56,50.56,0,0,1-2-14.18v-.25a50.58,50.58,0,0,1,2-14.18,40.75,40.75,0,0,1,5.65-12,28.86,28.86,0,0,1,8.83-8.29,23.12,23.12,0,0,1,23.15.06,30,30,0,0,1,9,8.36,39.81,39.81,0,0,1,5.71,12.08A51.22,51.22,0,0,1,132.43,167.1Z" style="fill:#fff"/><path d="M59.41,203.08H12.93l24.7-22.39c3.77-3.44,7-6.59,9.72-9.35a62.44,62.44,0,0,0,6.77-8.14,30.65,30.65,0,0,0,4-7.93,28.19,28.19,0,0,0,1.26-8.52v-.25a23.07,23.07,0,0,0-2-9.65A24.39,24.39,0,0,0,43.51,124,29.27,29.27,0,0,0,33,122.16a36.17,36.17,0,0,0-10.28,1.35,30.33,30.33,0,0,0-8.25,3.84,35.74,35.74,0,0,0-6.77,5.93A66.93,66.93,0,0,0,1.85,141l-.44.66.66.44,4.78,3.19.65.43.45-.64a47.65,47.65,0,0,1,11-11.64,22.78,22.78,0,0,1,13.51-4,20.8,20.8,0,0,1,7.09,1.24,17.83,17.83,0,0,1,5.93,3.51A17,17,0,0,1,51,147.08a21.65,21.65,0,0,1-.95,6.38,25.31,25.31,0,0,1-3.15,6.4,58.91,58.91,0,0,1-5.81,7.24c-2.37,2.57-5.35,5.48-8.84,8.64l-32,28.89-.26.24v5.93H60.21v-7.73Z" style="fill:#fff"/><path d="M526.77,15.85V2.61h7.72V15.85Zm0,75.16V24.68h7.72V91Z" style="fill:#fff"/><path d="M507.83,24.68V36.56a34.51,34.51,0,1,0,.4,42.07l0,.25-.37,2.94q-3.31,20.35-21.7,24.4a26.18,26.18,0,0,1-6,.61,25.55,25.55,0,0,1-20.35-9.56l-1.47-2-6.5,4.41a32.38,32.38,0,0,0,12.14,10.91,34.48,34.48,0,0,0,16.06,3.8,41.26,41.26,0,0,0,7.6-.74,32.92,32.92,0,0,0,27.1-28,28.53,28.53,0,0,0,.43-3.31c0-.71.05-1.34.06-1.93h0V24.68ZM480.67,84.56a26.72,26.72,0,1,1,26.72-26.72A26.72,26.72,0,0,1,480.67,84.56Z" style="fill:#fff"/><path d="M430.71,15.85V2.61h7.72V15.85Zm0,75.16V24.68h7.72V91Z" style="fill:#fff"/><path d="M420.46,61.43V57.84A34.53,34.53,0,1,0,407,85.19L420.41,93l0-25.75h0Zm-7.79,18,0,0v0l-6.72-3.87a26.9,26.9,0,0,1-6.4,5.28,26.71,26.71,0,1,1,13.16-23v21.6Z" style="fill:#fff"/><path d="M289.25,90.89V2.61h8V45.76L343.49,0l5.4,5.48L308.22,45.57l45.14,42.14-5.14,5.6-51-47.05V90.89Z" style="fill:#fff"/><path d="M269.94,2.61V36.09a34.52,34.52,0,1,0,0,43.51V91h7.72V2.61Zm-26.79,82a26.72,26.72,0,1,1,26.72-26.72A26.72,26.72,0,0,1,243.14,84.56Z" style="fill:#fff"/><path d="M193.18,15.85V2.61h7.72V15.85Zm0,75.16V24.68h7.72V91Z" style="fill:#fff"/><path d="M150.94,23.33a34.52,34.52,0,1,0,34.52,34.52A34.52,34.52,0,0,0,150.94,23.33Zm0,61.23a26.72,26.72,0,1,1,26.72-26.72A26.72,26.72,0,0,1,150.94,84.56Z" style="fill:#fff"/><path d="M85.4,91V24.68h7.48V38.9a30,30,0,0,1,2.27-3.68A28.68,28.68,0,0,1,98,31.91q8.21-8,18.39-9V30.7l-2.59.62A28,28,0,0,0,95,47a34.8,34.8,0,0,0-2.16,13.2V91Z" style="fill:#fff"/><path d="M0,91V2.61H24.65q11.65,0,18.39,2a42.87,42.87,0,0,1,13.61,7.12A42,42,0,0,1,69.4,27a43.69,43.69,0,0,1,4.41,19.46,45.16,45.16,0,0,1-1.47,11.17Q64.13,91,24.52,91Zm8-7.36H24.31q33.67,0,40.55-27.71a37,37,0,0,0,.86-5.09,48.24,48.24,0,0,0,.37-5.09q0-15.69-11.55-25.75T23.82,10H8Z" style="fill:#fff"/></svg>